<?xml version="1.0" encoding="utf-8"?>
<!-- Generator: Adobe Illustrator 22.0.1, SVG Export Plug-In . SVG Version: 6.00 Build 0)  -->
<svg version="1.1" id="Layer_1" xmlns="http://www.w3.org/2000/svg" xmlns:xlink="http://www.w3.org/1999/xlink" x="0px" y="0px"
	 viewBox="0 0 642.8 248.6" style="enable-background:new 0 0 642.8 248.6;" xml:space="preserve" width="168px" height="68px">
<style type="text/css">
	.st0{fill-rule:evenodd;clip-rule:evenodd;fill:#565654;}
	.st1{fill-rule:evenodd;clip-rule:evenodd;}
	.st2{fill-rule:evenodd;clip-rule:evenodd;fill:#EA0029;}
	.st3{fill-rule:evenodd;clip-rule:evenodd;fill:#F2EA29;}
	.st4{fill:#FFFDFD;}
</style>
<g>
	<g>
		<g>
			<path class="st0" d="M304.3,0.4c17.9-0.9,37.5-0.1,55.2,0.7c53.4,2.5,101.6,9.6,145.7,21.4c29.2,7.8,55.7,17.1,80.4,31.2
				c22.6,12.8,47.3,29.9,55.2,56.2c4.9,16.3,0.3,33.2-7,44.6c-7.1,11.3-17.6,20.8-27.6,28.1c-21.8,15.9-47.7,27.2-75.1,36.2
				c-27.8,9.2-57.9,16.3-90,21.4c-63.8,10-141,10.8-209,3.8c-33.2-3.4-64.8-9.4-94.1-17.3c-28.9-7.8-56-17.6-80.4-31.2
				c-22.3-12.4-47.2-29.6-55.4-55.9c-5.2-16.7-0.2-33.2,6.7-44.4C16.2,83.4,27,73.6,36.2,66.9c22.5-16.5,45.9-26.7,74.9-36.5
				C139,21,169.1,14,201.1,9c32.2-5,65.7-8.6,102.7-8.6C304,0.4,304.2,0.4,304.3,0.4z"/>
		</g>
	</g>
	<g id="Shape_2">
		<g>
			<ellipse class="st1" cx="321.2" cy="124" rx="306.5" ry="111.5"/>
		</g>
	</g>
	<g id="Shape_3">
		<g>
			<ellipse class="st2" cx="321.7" cy="123.5" rx="300" ry="106"/>
		</g>
	</g>
	<g id="Shape_4">
		<g>
			<ellipse class="st3" cx="321.7" cy="123.5" rx="294" ry="101"/>
		</g>
	</g>
	<g>
		<g>
			<path class="st1" d="M257.8,79.1c-1.3-0.6-2.7-0.2-3.8-0.5c-2.9-0.6-6.9-3.4-7.4-6.5c-1.1-5.9,4-11.4,8.4-13.7
				c5-2.6,11.1-1.8,18.5-1.7c26,0.4,50.7,3.8,71.8,9.4c17.6,4.7,34.5,11.8,47.3,22.3c4.3,3.5,8.9,7.4,11.5,11.5
				c1.9,3,3.5,6,3.1,11.3c-0.6,8-5.9,15.2-10.3,20.6c-4.8,6-10.3,10.6-16.1,14.6c-13.1,9-26.7,15.3-41.3,20.2
				c-23.7,7.9-48.8,11.5-80.9,11.5c-9,0-24.3,1.8-25.2-6.2c-0.7-6.3,6.6-10.1,10.6-12.7c0.8-0.5,1.4-1.2,2.2-1.7
				c0.9-0.5,2-0.7,2.6-1.2c0.3-0.3,0.6-1.1,1.2-1.7c0.6-0.6,1.4-0.9,1.7-1.2c1-1.2,1.8-3.7,2.6-5.8c0.9-2.1,2.2-4.9,2.4-7
				c0.5-5.2,0.5-10.5,1.2-15.8c0.7-5.3,0.6-10.6,1-15.8c0.4-5.2,1-10.7,1.2-15.8c0.1-2.6,0.4-5.5,0.2-8.2
				C260,82.8,258.7,81.2,257.8,79.1z M281.3,113.9c0,9,0.9,17.3,2.4,25c0.2,1.1,0.8,2.4,1,3.6c0.3,1.6,0,3.1,0.5,4.3
				c0.7,1.8,4,4.9,5.3,5.3c1.1,0.3,2.6,0.1,4.1,0.2c1.4,0.1,3,0.4,4.3,0.5c9.4,0.5,17.9-1.2,25.9-2.4c8.1-1.3,16.8-1.9,23.8-4.8
				c2.5-1,4.9-2.5,7.2-4.1c2.3-1.5,4.6-2.9,7-4.6c3.2-2.3,6.6-5.3,9.4-7.9c2.5-2.4,2.9-3.3,4.3-6.7c1.1-2.8,3-7.6,2.4-11.5
				c-0.2-1.4-1.5-3.6-2.6-5.3c-1-1.6-2.3-3.7-3.4-4.6c-0.8-0.6-2-1.1-3.1-1.7c-3.2-1.8-6.2-4.2-9.1-5.8c-2.8-1.5-6.2-2.8-9.1-4.1
				c-1-0.5-1.9-1.3-2.9-1.7c-1.7-0.6-3.5-0.8-5.3-1.4c-1.6-0.6-3.2-1.6-4.8-2.2c-2.3-0.8-5.2-1.2-7.9-1.7c-13.7-2.4-31-2.7-43,1
				C282.1,90,281.3,102.2,281.3,113.9z"/>
			<path class="st1" d="M450.7,137.9c-1.6,9.7-1.1,18.6-3.8,25.7c-2.1,5.4-5.4,10.1-10.8,12.5c-6.6,2.9-21.5,3.8-25-2.9
				c-2.9-5.6,0.4-16,1.4-22.6c1.1-7.3,2-16,2.4-24c0.2-4.8,0.2-8.6,0.7-12.5c0.9-7.4,2.9-14.7,2.4-23.5c-0.2-4.5-0.9-9.2-2.4-10.6
				c-0.5-0.5-1.6-0.7-2.6-1c-1-0.3-2.1-0.8-2.6-1c-1.7-0.4-3.7,0-5.5-0.2c-4.9-0.6-10.6-1.4-11.3-7c-0.5-4.2,2.5-7.5,5.5-9.1
				c4.3-2.4,11.7-2.2,19.2-2.4c42-1.3,85.8-1.3,119.5,7.7c9,2.4,19.3,5.2,24.5,10.6c5.4,5.6,9.1,17,5,25.2c-0.8,1.5-2.1,3.4-3.1,4.6
				c-5.7,6.5-13.6,9.8-22.3,13.7c-8.7,3.9-18.8,4.9-29.5,6.5c-10.5,1.5-21.6,2.7-32.2,3.8C469.3,132.6,458.6,133.1,450.7,137.9z
				 M453.8,114.4c3.3,0.3,7.3-0.6,11.3-1c9.6-0.8,20.2-0.4,29-1.4c1.9-0.2,4.1-0.2,5.8-0.5c1.1-0.2,2.5-1,3.8-1.4
				c3.5-1.1,7.5-2.2,10.6-3.1c2.3-0.7,3.2-1.2,4.8-1.9c1-0.4,2.1-0.6,2.9-1c1.3-0.6,2.6-1.7,3.8-2.4c3.4-2,5.1-2.7,7.4-5.5
				c2.2-2.7,3.6-4.2,2.2-8.2c-0.8-2.2-5.2-6.1-7.2-7.2c-4.1-2.3-10.2-2.7-16.1-3.1c-11.8-0.8-26.5-0.5-38.9-0.5
				c-7.2,0-14.4-0.7-19.9,0c-1.4,0.2-4.3,0.2-5.3,0.5c-1.3,0.4-1.9,1.4-2.9,2.6c-0.8,0.9-2.3,1.9-2.6,2.9c-0.3,1.1,0.1,2.7,0,4.1
				c-0.1,1.3-0.5,2.6-0.5,3.6c-0.1,7,2.7,13.9,3.8,20.2C448.5,111.8,450.9,114.1,453.8,114.4z"/>
		</g>
	</g>
	<g>
		<g>
			<path class="st1" d="M81.6,32.8c6.3,0,12.6,0,19,0c10.7,0.7,17.1,6.4,21.8,13.7c4,6.2,7.2,13.3,11,20.4c3.8,7,7.3,13.8,10.8,20.9
				c0.6,1.2,1.3,2.2,1.9,3.4c0.6,1.1,0.9,2.4,1.9,3.1c2.9-0.4,4.2-3.7,6-5.8c7.2-8.2,13.8-17.3,20.2-26.9c1.6-2.3,3.3-4.5,5-6.7
				c3.5-4.4,6.7-9.5,11-12.2c1.8-1.1,4.8-2.6,7.7-2.9c4.3-0.4,8,0.9,11.3,2.2c6.5,2.6,12,5,17.8,9.1c2.5,1.8,5.4,4.3,5.3,8.2
				c-0.1,3.4-3.3,6.3-6.5,8.2c-6.6,3.8-10.8,8.3-15.8,13.4c-2.5,2.5-5.2,4.6-7.4,7c-1.3,1.3-2.2,2.8-3.4,4.1
				c-3.3,3.5-7.6,6.9-11,10.6c-2.3,2.5-5.1,4.7-7.4,7.2c-4.5,4.7-8.2,9.7-13.4,13.7c0.6,1.6,1.2,3.3,1.9,4.8
				c0.7,1.4,1.6,2.8,2.4,4.1c4.1,6.8,8.3,13.1,13,19.4c2.4,3.2,4.7,5.9,7.7,8.9c1.6,1.6,3.2,3.5,4.8,5c7,6.5,14.8,11.5,24.2,15.1
				c2.4,0.9,4.9,1.6,7.7,2.2c4.1,0.8,9.4,1.1,12.7,3.4c3.7,2.6,6.2,9.4,3.4,14.9c-1.5,2.9-4.5,5.1-7.4,7c-3,1.9-6.9,3.7-11.8,3.6
				c-4.6-0.1-9.5-1.6-13.4-3.1c-3.8-1.5-7.4-3.8-10.8-5.8c-7.5-4.3-13.6-8.1-19-14.2c-5.4-6.1-10.8-11.6-15.6-17.5
				c-5-6.2-10-12.2-15.6-17.3c-1-1-1.7-1.4-2.4-2.2c-1.7-1.4-3.2-2.9-4.6-4.6c-3.1,1.2-4.8,4.2-7,6.5c-2.1,2.3-4.3,4.4-6.5,6.7
				c-8.5,9-15.4,19.7-23.5,29.3c-3.2,3.8-5.5,7.6-7.4,12.5c-0.2,0.4-0.6,0.5-0.7,1c-0.3,1.1-0.6,2.5-1.2,3.6
				c-3.6,6.3-10.9,8.9-19,10.1c-1.4,0-2.7,0-4.1,0c-6.4-1.1-10.6-4.5-11.3-11.3c0-0.1,0-0.2,0-0.2c0.3-1.8,0.7-4.4,1.4-6.2
				c1.4-3.4,4.2-7.1,6.7-10.6c5.2-7.2,10.4-12.4,15.4-19.2c7.6-10.3,15.5-18.2,23.5-28.6c3.6-4.6,7.1-10,10.8-15.1
				c1.5-2.1,3.3-3.8,3.4-5.5c0.1-2.7-3.7-7.4-5.8-10.3c-2.5-3.6-5-6.5-7.2-9.4c-5.5-7.1-9.7-12.1-14.4-18.7c-2.4-3.4-5-6.2-7.2-9.4
				c-2.2-3.1-4-6.6-6.5-10.1c-2-2.8-4.5-6.1-7-9.6c-2.2-3.1-5.5-7.1-5-11.5C72.5,36,76.3,34,81.6,32.8z"/>
		</g>
	</g>
	<g>
		<g>
			<path class="st1" d="M232.1,182.8c1.5,0,3,0,4.6,0c46.4,0.4,94.2,0.2,144.2,0.2c40.8,0,83.9,0.2,126,0.2c6.1,0,13.1-0.9,17.8,0.2
				c4.8,1.2,7.6,5.2,7.9,10.8c0,2.3,0,4.6,0,7c-0.3,8-5.6,11.1-14.2,10.8c-2.2,0-4.3,0-6.5,0c-49.3-0.6-99.6-0.1-149.3-0.2
				c-41.5-0.4-87.7-0.2-130.6-0.2c-3.8,0-9.5,0-10.6-3.4c-0.3-1-0.6-2.7,0.7-3.6c1.7-1.2,3.9,2.4,7.2,1.4c1.2-0.3,3.2-1.3,2.9-4.3
				c-0.4-3.5-3.3-2.3-6.2-4.3c0.2-1.3-0.8-2-1.2-3.4c-0.4-1.3,0.1-2.4-0.2-3.8c-0.4-1.7-2.2-2.5-1.9-4.3
				C223.3,182.7,228.1,183.2,232.1,182.8z"/>
		</g>
	</g>
	<g>
		<path class="st4" d="M260.9,194.8c0.5,0.6,0.8,1.2,0.8,1.9c0,0.7-0.3,1.6-0.9,2.6c-0.8,1.4-1.3,2.2-1.4,2.4c-4.1,4-9.6,6-16.4,6
			c-1.1,0-2.2-0.1-3.2-0.2c-0.2-0.3-0.2-0.6-0.2-0.9c0-0.6,0.5-1.3,1.5-2c0.8-0.5,1.7-1.1,2.5-1.6c-0.4-1.4-0.6-3-0.6-4.8
			c0-0.8,0.1-1.9,0.2-3.4c0.1-1.5,0.2-2.6,0.2-3.4c-0.9-0.2-1.3-0.4-1.3-0.9c0-0.3,0.1-0.6,0.4-1c0.4-0.5,0.6-0.9,0.6-1
			C251.8,188.6,257.8,190.7,260.9,194.8z M257.7,196.1c-0.9-1.6-2.4-2.9-4.6-3.8c-2-0.8-4.2-1.2-6.8-1.2c-0.3,3-0.5,5.2-0.5,6.6
			c0,3.5,0.7,6,2.1,7.4l4-1.2c1.7-0.5,3.2-1.3,4.4-2.3c1.3-1.1,1.9-2.3,1.9-3.6C258.2,197.4,258,196.8,257.7,196.1z"/>
		<path class="st4" d="M291.4,188.8c-0.7,0.7-1.8,1.2-3.2,1.3c-0.8,0.1-2,0.2-3.6,0.3l-8.9,1.5c-0.5,1.6-0.7,3.5-0.7,5.8
			c0,0.5,0.1,2.7,0.3,6.5c0.7,0.3,1.4,0.4,2.2,0.4c0.6,0,1.4-0.1,2.6-0.3c1.2-0.2,2-0.3,2.7-0.3c0.7,0,1.3,0.1,2,0.3
			c0.2,0.2,0.2,0.4,0.2,0.6c0,0.8-0.5,1.4-1.4,1.7c-0.7-0.2-1.6-0.4-2.6-0.4c-1.4,0-3,0.3-4.9,0.9c-0.1,0.2,0,0.4,0.2,0.6
			c0.2,0.3,0.3,0.5,0.3,0.5c0,0.5-0.4,0.7-1.1,0.6c-0.5-0.1-0.8-0.1-0.9,0c-0.3-1.2-1.3-1.9-2.9-1.9c-0.6,0-1.4,0.1-2.5,0.2
			c-1.1,0.2-1.9,0.2-2.5,0.2c-1.3,0-2.2-0.3-2.7-1l9.5-2l-0.8-11.9c-5.1,0-9-0.6-11.7-1.7c0.7-0.2,1.6-0.3,2.7-0.3
			c0.6,0,1.6,0,2.8,0.1c1.3,0.1,2.2,0.1,2.8,0.1c2.7,0,4.1-0.7,4.1-2.1c0-0.5-0.2-1.1-0.5-1.8c0-0.5,0.7-0.7,2-0.7
			c0.2,0.3,0.4,0.6,0.4,1.1c0,0.2,0,0.4,0,0.6c0,0.3,0,0.5,0,0.6c0,0.5,0.2,1,0.6,1.3c0.5,0.1,1.1,0.1,1.7,0.1
			c1.6,0,3.8-0.4,6.6-1.1c3-0.8,5.2-1.3,6.6-1.4l0.9,1C291.5,188.5,291.5,188.7,291.4,188.8z"/>
		<path class="st4" d="M313.5,188.7c-6.6,0.3-12.1,1.5-16.5,3.8l-2,6.7c0.7,0.1,1.4,0.1,2.2,0.1c4.3,0,8.6-1.2,12.8-3.6
			c0.4,0.2,0.6,0.6,0.6,1c-4.2,1.9-9.4,3.6-15.7,5.4c-0.1,0.3-0.1,0.5-0.1,0.8c0,1.5,0.8,2.3,2.4,2.4c2.1,0.2,4.4-0.2,7-1.1
			c3.4-1.2,5.6-1.9,6.6-2c-0.6,1.2-2.2,2.2-4.6,2.9c-0.6,0.2-2.8,0.8-6.6,1.8c-0.8,0.2-1.6,0.3-2.4,0.3c-1.4,0-2.5-0.2-3.4-0.7
			c-1-0.5-1.6-1.3-1.6-2.2c0-0.4,0.1-0.8,0.2-1.2c0-0.4,0-0.8,0-1.1c0-1.2,0.4-3.1,1.2-5.5c0.8-2.5,1.2-4.3,1.2-5.6
			c3.6-1.8,7.8-2.7,12.8-2.7C309.6,188.2,311.6,188.4,313.5,188.7z"/>
		<path class="st4" d="M338.7,203.8v1.3c-0.1,0.5-0.4,0.8-0.9,1c-3,0.3-5.8,0.5-8.6,0.5c-5,0-9.1-0.5-12.2-1.6
			c-0.2,0.4-0.4,0.6-0.8,0.6c-0.5,0-1-0.3-1.6-1c0.2-0.2,0.4-0.5,0.7-1.1c0.2-0.5,0.5-0.8,1-0.8c0.2,0,0.5,0.1,0.9,0.2
			c1.7,1.2,4.5,1.9,8.4,1.9c2.3,0,4.7-0.2,7.4-0.6c-1.4-0.8-4.4-2.1-8.9-4c-4-1.6-6.8-3.1-8.5-4.5c-0.2-1.6,1.4-3.1,4.8-4.5
			c1.5-0.6,3.5-0.9,6-0.9c1,0,2.6,0.1,4.9,0.2c2.1,0.1,3.8,0.2,4.9,0.1c0.6,0.3,0.9,0.8,0.9,1.3c0,0.2,0,0.4-0.1,0.5
			c-0.7,0.5-1.5,0.8-2.4,0.8c-0.8,0-1.7-0.2-2.6-0.7l-4.7-0.1c-3.6,0-6.3,0.6-8.1,1.8c2,1.8,5.2,3.5,9.4,5.2
			C334.1,201.7,337.5,203.1,338.7,203.8z"/>
		<path class="st4" d="M361.1,188.7c-6.6,0.3-12.1,1.5-16.5,3.8l-2,6.7c0.7,0.1,1.4,0.1,2.2,0.1c4.3,0,8.6-1.2,12.8-3.6
			c0.4,0.2,0.6,0.6,0.6,1c-4.2,1.9-9.4,3.6-15.7,5.4c-0.1,0.3-0.1,0.5-0.1,0.8c0,1.5,0.8,2.3,2.4,2.4c2.1,0.2,4.4-0.2,7-1.1
			c3.4-1.2,5.6-1.9,6.6-2c-0.6,1.2-2.2,2.2-4.6,2.9c-0.6,0.2-2.8,0.8-6.6,1.8c-0.8,0.2-1.6,0.3-2.4,0.3c-1.4,0-2.5-0.2-3.4-0.7
			c-1-0.5-1.6-1.3-1.6-2.2c0-0.4,0.1-0.8,0.2-1.2c0-0.4,0-0.8,0-1.1c0-1.2,0.4-3.1,1.2-5.5c0.8-2.5,1.2-4.3,1.2-5.6
			c3.6-1.8,7.8-2.7,12.8-2.7C357.1,188.2,359.1,188.4,361.1,188.7z"/>
		<path class="st4" d="M388.4,204.3c0.4,0.5,0.6,0.8,0.6,1c0,0.2-0.2,0.5-0.7,0.8c-1.6-0.6-3.4-0.9-5.2-0.9c-1.9,0-4.7,0.4-8.5,1.2
			c-3.7,0.8-6.6,1.2-8.5,1.2c-0.9,0-1.7-0.1-2.6-0.2l-0.9-1.1c0.3-2.2,0.7-5.4,1.3-9.6c0.7-3.6,2.2-6.5,4.7-8.7
			c1,0.4,1.5,0.8,1.5,1.2c0,0.3-0.5,0.9-1.5,1.8c-1,0.9-1.4,1.6-1.3,2.1c-1,1.9-1.4,4.4-1.4,7.6c0,1.4,0.1,3,0.3,4.7
			c2.1,0.1,5-0.2,8.9-0.7c4-0.5,7-0.8,8.9-0.8C385.5,203.9,387,204.1,388.4,204.3z"/>
		<path class="st4" d="M424.3,192.5c0.2,0.9-0.5,1.9-2.1,3c-0.9,0.6-1.9,1.1-3.1,1.5c-0.7,0.9-2.2,1.6-4.2,2
			c-0.7,0.1-2.4,0.4-5.1,0.8c-1.6,0.4-2.4,1.1-2.4,2.2c0,0.5,0.1,1,0.4,1.6c0.3,0.4,0.5,0.9,0.4,1.6c-0.1,1.3-0.2,1.9-0.2,1.7
			c-0.2,0.5-0.7,0.7-1.4,0.7c-0.6,0-1.1-0.2-1.5-0.5l0.2-3.1c0-2.2-0.7-3.7-2.2-4.5l0.1-1.5h0.4c0-0.6,0.1-1.5,0.2-2.7
			c0.1-1.2,0.2-2.1,0.2-2.7c0-1.3-0.3-2.4-0.7-3.3c0.1,0-0.5,0-1.9,0c-0.7,0-1.3-0.1-1.6-0.4c-0.1-0.2-0.2-0.3-0.2-0.5
			c0-0.6,0.7-1.1,2.1-1.5c3.8-0.1,6.1-0.2,7-0.2c6.1,0,10.5,1,13.2,2.9L424.3,192.5z M419.5,192c-1.1-2.1-3.9-3.1-8.4-3.1
			c-1.1,0-2.2,0.1-3.4,0.2c-0.4,0.8-0.6,1.7-0.6,2.7c0,0.7,0.1,1.7,0.3,3c0.2,1.3,0.3,2.3,0.3,3c0.5-0.1,1.6-0.2,3.6-0.5
			c1.4-0.2,2.5-0.4,3.3-0.8c1.3-0.3,2.5-0.9,3.4-1.8C419.1,193.9,419.5,193,419.5,192z"/>
		<path class="st4" d="M445.3,194.1c0.3,0.8,0.5,1.6,0.5,2.4c0,2.9-2,5.5-6.1,7.9c-4,1.3-6.6,2-8,2c-0.7,0-1.3,0-2-0.1
			c-1.3-0.4-2.4-1-3.1-2c-0.4-0.5-0.9-1.5-1.5-2.9c0.7-2.8,2.5-5.4,5.5-7.8c2.9-2.2,6.2-3.9,10-5c0,0,0.4,0,1.1,0
			c0.5,0,0.8,0.1,0.9,0.4l-3.2,1.4C442.9,191,444.8,192.3,445.3,194.1z M442.3,195.5c-0.8-1.6-2.3-2.4-4.5-2.4
			c-2-0.1-3.7,0.4-5.1,1.5c-0.8,0.6-1.8,1.7-3.1,3.3c-0.8,0.8-1.3,1.8-1.3,2.9c0,1.3,0.6,2.2,1.9,2.8c0.7,0.2,1.4,0.3,2.1,0.3
			c1.3,0,3.6-0.7,6.9-2.1c2.2-1.3,3.3-2.9,3.3-4.7C442.8,196.6,442.6,196,442.3,195.5z"/>
		<path class="st4" d="M471.5,189.5c-0.9,5.7-4.3,11.2-10.4,16.6c-1.3,0-2.1-0.6-2.3-1.7c-0.3-1.6-0.6-2.5-0.9-2.8
			c0-0.2,0-0.6,0.1-1.1c0.1-0.5,0.2-0.8,0.2-1c0-0.7-0.4-1.2-1.1-1.6c-1.4,2.6-2.2,4.1-2.5,4.5c-1,1.6-2.2,3-3.4,4.1
			c-1.2,0-2-0.4-2.4-1.1c-0.2-0.3-0.3-1.1-0.4-2.3c-0.1-1-0.3-1.7-0.7-2.1l-0.7-12.6c0.3,0,0.7-0.1,1.2-0.2c0.5-0.1,0.8-0.2,1-0.2
			c0.4,0,0.7,0.2,1.1,0.5c-0.5,1.3-0.7,2.7-0.7,4.2c0,1.5,0.6,4.7,1.9,9.5c3-4.1,4.5-7.4,4.6-9.9c0.2-0.1,0.6-0.2,1.2-0.3
			c0.6-0.1,1.1-0.2,1.3-0.4l1.4,1.1c0.1,0.7,0.3,2.2,0.5,4.7c0.2,1.9,0.5,3.3,1,4.4c1.7-0.9,3.1-2.2,4.2-3.8c0.7-1,1.4-2.6,2.2-4.8
			c0.8-2.2,1.6-3.7,2.2-4.7L471.5,189.5z"/>
		<path class="st4" d="M493.9,188.7c-6.6,0.3-12.1,1.5-16.5,3.8l-2,6.7c0.7,0.1,1.4,0.1,2.2,0.1c4.3,0,8.6-1.2,12.8-3.6
			c0.4,0.2,0.6,0.6,0.6,1c-4.2,1.9-9.4,3.6-15.7,5.4c-0.1,0.3-0.1,0.5-0.1,0.8c0,1.5,0.8,2.3,2.4,2.4c2.1,0.2,4.4-0.2,7-1.1
			c3.4-1.2,5.6-1.9,6.6-2c-0.6,1.2-2.2,2.2-4.6,2.9c-0.6,0.2-2.8,0.8-6.6,1.8c-0.8,0.2-1.6,0.3-2.4,0.3c-1.4,0-2.5-0.2-3.4-0.7
			c-1-0.5-1.6-1.3-1.6-2.2c0-0.4,0.1-0.8,0.2-1.2c0-0.4,0-0.8,0-1.1c0-1.2,0.4-3.1,1.2-5.5c0.8-2.5,1.2-4.3,1.2-5.6
			c3.6-1.8,7.8-2.7,12.8-2.7C489.9,188.2,491.9,188.4,493.9,188.7z"/>
		<path class="st4" d="M522.6,202.8c0.5,0.9,0.8,1.4,0.8,1.7c0,0.4-0.3,0.5-0.9,0.4c-0.4,1-2.1,1.4-5,1.3l-18-5.2
			c-0.5,0.4-0.7,0.9-0.7,1.5c0,0.5,0.3,1.4,0.9,2.5c0.6,1.1,0.9,1.9,0.9,2.3c0,0.7-0.7,1-2.1,1c-0.4,0-0.8,0-1.2,0
			c-0.7-2.3-1.2-5.4-1.6-9.2l-0.8-8.9c0.4-0.9,1.1-1.3,2.2-1.3c0.5,0,1.3,0.1,2.3,0.4c1,0.2,1.8,0.4,2.3,0.4c0.9,0,2.1,0,3.6-0.1
			c1.7-0.1,2.9-0.1,3.6-0.1c3.4,0,5.9,0.6,7.5,1.8c-0.2,2.1-1.8,3.8-4.7,5.2c-1.7,0.8-4.2,1.9-7.6,3.4c2.2,1.1,4.8,2.1,7.7,2.8
			c1.8,0.5,4.6,1.1,8.2,2.1c0.2-0.2,0.4-0.5,0.7-1.1c0.2-0.5,0.5-0.8,1-0.8C522,202.6,522.3,202.7,522.6,202.8z M511.4,191.9
			c-0.9,0-2,0-3.4,0c-1.7-0.1-2.9-0.1-3.4-0.1c-4.5,0-6.7,0.9-6.7,2.7c0,0.7,0.3,1.5,0.9,2.5l1,0.8c4.2-1.2,6.6-1.8,7.2-2.1
			C509.5,194.7,511,193.4,511.4,191.9z"/>
	</g>
</g>
</svg>
